<svg width="1000" height="1000" viewBox="0 0 1000 1000" fill="none" xmlns="http://www.w3.org/2000/svg">
<path d="M623.984 594.486C608.848 616.365 588.315 627.375 562.02 627.422C536.005 627.469 515.645 616.269 499.692 595.241C494.601 602.681 488.815 608.794 481.828 613.735C444.533 640.109 389.958 628.287 370.686 584.587C368.943 580.634 366.902 579.364 362.6 579.173C325.418 577.514 297.214 553.798 291.639 518.669C289.678 506.318 290.895 494.02 296.033 482.442C297.806 478.447 297.484 476.481 293.405 473.834C267.223 456.844 254.793 432.475 257.321 401.342C258.935 381.477 267.933 364.697 282.859 351.397C285.765 348.808 286.225 346.899 284.64 343.397C268.607 307.975 282.463 269.38 317.399 252.05C320.297 250.612 321.142 249.104 320.628 245.856C314.583 207.645 345.325 171.645 383.999 171.826C389.681 171.852 392.639 170.497 395.158 164.86C412.668 125.672 467.788 117.93 495.926 150.413C497.1 151.768 498.355 153.052 499.849 154.668C503.984 150.691 507.27 146.512 511.442 143.176C542.848 118.064 590.763 130.309 605.932 167.514C607.193 170.605 608.852 171.933 612.252 171.698C643.347 169.55 674.45 193.614 679.216 227.361C680.108 233.677 679.967 240.012 679.44 246.304C679.191 249.275 679.871 250.714 682.565 252.102C709.98 266.218 722.701 289.01 721.627 319.588C721.339 327.798 719.211 335.762 715.394 343.068C713.513 346.668 713.906 348.765 717.033 351.522C746.774 377.746 751.671 422.195 728.29 454.221C722.261 462.478 714.67 469.32 705.703 474.406C702.783 476.063 701.802 477.538 703.298 481.079C721.892 525.098 693.67 571.644 646.341 578.405C641.303 579.125 635.14 577.21 631.468 580.68C627.939 584.014 626.526 589.589 623.984 594.486ZM433.27 155.351C425.582 159.181 419.709 164.81 415.597 172.421C413.619 176.083 413.855 177.983 417.923 180.103C433.626 188.285 443.916 201.123 448.854 218.149C450.889 225.164 448.322 230.488 442.11 232.629C436.412 234.593 431.285 231.768 428.419 225.106C427.234 222.352 426.132 219.554 424.786 216.88C416.18 199.772 395.184 189.749 376.874 193.945C356.637 198.582 342.102 215.966 341.786 235.912C341.659 243.904 342.352 244.664 350.362 244.617C366.771 244.521 381.436 249.686 394.692 259.163C398.563 261.931 400.467 265.65 399.484 270.401C398.602 274.66 395.804 277.428 391.709 278.778C387.604 280.13 384.267 278.239 381.037 276.017C366.517 266.024 350.715 263.354 333.938 268.662C311.112 275.884 298.947 295.925 299.957 316.852C301.032 339.11 319.949 358.635 341.754 361.622C347.651 362.43 348.292 361.811 347.346 356.226C342.766 329.204 359.017 305.486 385.667 300.294C392.642 298.936 398.026 302.125 399.46 308.465C400.882 314.753 397.183 319.901 390.209 321.343C378.416 323.78 369.223 333.704 368.701 344.562C368.058 357.936 375.608 369.175 387.865 372.858C394.313 374.796 400.628 373.783 407.02 372.008C414.063 370.052 419.284 373.107 421.042 379.543C422.587 385.196 419.567 390.263 413.044 392.445C396.503 397.98 380.837 396.199 366.421 386.179C363.237 383.966 360.188 382.967 356.275 383.228C336.893 384.521 319.33 379.31 303.884 367.506C300.902 365.226 299.111 365.903 296.692 368.122C268.39 394.082 274.053 439.809 307.809 457.971C310.376 459.352 312.115 459.382 314.403 457.367C323.309 449.525 333.697 444.365 345.125 441.292C350.441 439.862 355.835 438.641 361.371 438.882C367.463 439.147 371.571 443.594 371.676 449.615C371.783 455.731 367.892 459.791 361.543 460.333C358.567 460.587 355.581 460.898 352.646 461.436C330.278 465.53 313.02 485.56 312.739 507.668C312.42 532.723 331.991 554.862 356.933 557.662C364.678 558.532 365.142 558.146 366.036 550.084C368.864 524.581 388.881 501.566 413.675 495.312C419.581 493.822 425.317 496.869 427.22 502.507C429.025 507.852 426.159 513.154 420.189 515.493C418.639 516.1 417.068 516.656 415.514 517.256C394.689 525.287 383.11 547.404 388.387 569.065C393.237 588.978 409.807 603.022 431.993 606.026C457.743 609.512 482.392 592.509 488.128 567.22C488.897 563.832 489.025 560.296 489.826 556.918C491.055 551.739 494.921 548.786 499.817 548.863C504.899 548.943 508.626 551.84 509.783 556.976C510.51 560.204 510.576 563.585 511.359 566.795C520.176 602.924 562.47 618.404 592.7 596.616C611.296 583.213 617.91 560.103 608.536 539.974C602.896 527.864 593.336 520.047 580.531 516.037C573.789 513.926 570.796 508.433 572.655 502.629C574.617 496.506 580.349 493.651 587.004 495.564C599.186 499.063 609.292 505.845 617.827 515.116C627.805 525.952 632.947 538.911 634.347 553.394C634.709 557.145 636.261 558.129 639.755 557.969C644.829 557.736 649.623 556.519 654.323 554.778C679.286 545.53 692.13 520.799 685.238 495.297C680.18 476.583 660.855 461.726 639.762 460.334C631.907 459.815 627.428 455.197 628.182 448.391C628.901 441.897 634.219 438.174 641.627 438.978C657.383 440.686 671.954 445.613 683.993 456.163C688.076 459.742 690.955 458.993 694.846 456.543C726.167 436.821 730.284 394.104 703.391 368.329C700.528 365.585 698.582 365.363 695.425 367.866C682.289 378.282 667.051 383.31 650.437 383.148C642.502 383.071 635.904 384.629 629.025 388.904C615.65 397.217 600.952 397.45 586.212 392.332C580.051 390.193 577.194 384.961 578.747 379.508C580.501 373.349 585.059 370.648 591.864 371.84C593.662 372.154 595.394 372.84 597.189 373.184C608.128 375.278 617.809 373.127 625.132 364.206C631.843 356.03 633.177 346.701 629.236 337.005C625.558 327.958 618.121 323.281 608.78 321.146C602.586 319.731 599.238 314.707 600.237 309.021C601.239 303.313 606.669 299.36 612.74 300.004C614.223 300.161 615.699 300.509 617.14 300.909C642.564 307.963 657.081 330.869 652.251 356.813C651.422 361.263 652.762 362.404 656.674 361.727C659.781 361.19 662.944 360.667 665.903 359.629C683.422 353.487 695.282 341.625 698.836 323.296C702.5 304.4 696.266 288.33 680.905 276.483C663.077 262.732 638.741 262.545 619.702 275.527C616.638 277.616 613.6 279.748 609.637 279.138C604.894 278.407 601.707 275.616 600.425 271.052C599.053 266.168 600.83 262.201 604.867 259.26C619.262 248.775 635.414 243.996 653.166 244.628C656.053 244.731 657.805 244.388 658.106 240.831C660.59 211.473 633.952 187.888 605.173 194.103C590.431 197.287 580.147 205.974 573.886 219.57C573.052 221.382 572.433 223.293 571.688 225.147C568.863 232.174 563.599 234.798 557.103 232.432C551.104 230.246 548.626 224.629 550.888 217.631C556.196 201.206 566.295 188.549 581.589 180.475C586.021 178.135 586.25 175.955 584.164 171.94C576.047 156.316 556.866 148.212 538.887 153.048C522.882 157.353 511.133 172.269 510.733 189.108C510.508 198.602 510.51 208.107 510.643 217.603C510.7 221.688 509.094 223.414 505.032 223.236C501.372 223.075 497.7 223.132 494.035 223.2C490.476 223.266 488.971 221.734 489.037 218.07C489.189 209.573 488.997 201.071 489.072 192.573C489.363 159.394 457.596 143.857 433.27 155.351Z" fill="#3F51B5"/>
<path d="M449.002 383.477C453.44 381.056 453.504 377.452 452.972 373.395C449.509 347.024 451.821 321.18 461.219 296.244C468.593 276.679 479.851 259.497 494.717 244.67C498.407 240.989 501.149 241.165 504.711 244.633C522.14 261.609 534.593 281.633 541.612 304.913C548.386 327.384 549.972 350.331 546.855 373.581C546.297 377.746 547.319 380.707 550.775 383.498C570.138 399.138 574.561 420.271 572.316 443.725C571.967 447.371 571.825 451.043 571.32 454.665C570.951 457.311 570.294 460.007 567.167 460.917C563.918 461.862 561.625 460.165 559.802 457.886C554.483 451.236 549.069 444.681 542.199 439.548C538.784 436.996 535.739 433.769 531.225 432.733C528.417 435.881 527.48 439.866 525.74 443.408C524.409 446.118 522.563 447.395 519.489 447.378C506.496 447.304 493.501 447.279 480.509 447.423C476.414 447.469 474.611 445.157 473.148 441.887C471.753 438.769 471.481 435.045 468.194 432.44C458.468 437.741 450.289 444.876 443.314 453.473C441.741 455.413 440.371 457.567 438.565 459.257C435.064 462.532 429.754 461.498 429.113 457.025C427.035 442.51 425.527 427.896 429.389 413.392C432.583 401.401 439.394 391.724 449.002 383.477ZM483.853 331.953C488.58 339.888 495.267 343.202 503.403 341.642C510.426 340.295 516.111 334.205 517.517 326.523C518.746 319.803 515.288 312.583 508.989 308.717C502.782 304.909 494.38 305.604 488.423 310.42C482.584 315.14 480.819 322.715 483.853 331.953Z" fill="#7CB342"/>
<path d="M519.86 464.771C529.555 476.978 529.325 498.004 519.565 506.711C517.022 505.322 517.651 501.36 514.151 500.205C513.524 512.692 508.844 523.205 498.36 532.842C496.751 519.807 487.114 511.674 485.233 499.843C481.934 501.044 482.744 504.537 479.762 506.387C473.641 498.938 472.385 490.184 473.241 481.102C474.167 471.259 479.176 463.86 488.181 459.003C488.677 459.951 489.176 460.473 489.066 460.758C484.441 472.663 492.552 480.218 498.611 488.372C500.671 491.143 502.324 489.08 503.553 487.121C508.703 478.908 515.842 471.294 510.747 459.991C515.343 459.937 517.267 462.602 519.86 464.771Z" fill="#FF7043"/>
<path d="M262.915 707.42C262.506 703.295 260.75 700.091 257.648 697.807C254.545 695.523 250.335 694.381 245.017 694.381C241.403 694.381 238.352 694.892 235.864 695.915C233.375 696.903 231.466 698.284 230.136 700.057C228.841 701.829 228.193 703.841 228.193 706.091C228.125 707.966 228.517 709.602 229.369 711C230.256 712.398 231.466 713.608 233 714.631C234.534 715.619 236.307 716.489 238.318 717.239C240.33 717.954 242.477 718.568 244.761 719.079L254.17 721.329C258.739 722.352 262.932 723.716 266.75 725.42C270.568 727.125 273.875 729.221 276.67 731.71C279.466 734.199 281.631 737.131 283.165 740.506C284.733 743.881 285.534 747.75 285.568 752.114C285.534 758.523 283.898 764.079 280.659 768.784C277.455 773.454 272.818 777.085 266.75 779.676C260.716 782.233 253.438 783.511 244.915 783.511C236.46 783.511 229.097 782.216 222.824 779.625C216.585 777.034 211.71 773.199 208.199 768.119C204.722 763.006 202.898 756.682 202.727 749.148H224.153C224.392 752.659 225.398 755.591 227.17 757.943C228.977 760.261 231.381 762.017 234.381 763.21C237.415 764.369 240.841 764.949 244.659 764.949C248.409 764.949 251.665 764.403 254.426 763.312C257.222 762.222 259.386 760.704 260.92 758.761C262.455 756.818 263.222 754.585 263.222 752.062C263.222 749.71 262.523 747.733 261.125 746.131C259.761 744.528 257.75 743.165 255.091 742.04C252.466 740.915 249.244 739.892 245.426 738.972L234.023 736.108C225.193 733.96 218.222 730.602 213.108 726.034C207.994 721.466 205.455 715.312 205.489 707.574C205.455 701.233 207.142 695.693 210.551 690.954C213.994 686.216 218.716 682.517 224.716 679.858C230.716 677.199 237.534 675.869 245.17 675.869C252.943 675.869 259.727 677.199 265.523 679.858C271.352 682.517 275.886 686.216 279.125 690.954C282.364 695.693 284.034 701.182 284.136 707.42H262.915ZM312.501 811.483C309.74 811.483 307.149 811.261 304.729 810.818C302.342 810.409 300.365 809.881 298.797 809.233L303.706 792.972C306.263 793.756 308.564 794.182 310.609 794.25C312.689 794.318 314.479 793.841 315.979 792.818C317.513 791.795 318.757 790.057 319.712 787.602L320.99 784.278L292.814 703.483H315.723L331.984 761.165H332.803L349.217 703.483H372.28L341.751 790.517C340.286 794.744 338.291 798.426 335.768 801.562C333.28 804.733 330.126 807.17 326.308 808.875C322.49 810.614 317.888 811.483 312.501 811.483ZM404.212 736.619V782.028H382.428V703.483H403.189V717.341H404.109C405.848 712.773 408.763 709.159 412.854 706.5C416.945 703.807 421.905 702.46 427.734 702.46C433.189 702.46 437.945 703.653 442.001 706.04C446.058 708.426 449.212 711.835 451.462 716.267C453.712 720.665 454.837 725.915 454.837 732.017V782.028H433.053V735.903C433.087 731.097 431.859 727.347 429.371 724.653C426.882 721.926 423.456 720.562 419.092 720.562C416.161 720.562 413.57 721.193 411.32 722.454C409.104 723.716 407.365 725.557 406.104 727.977C404.876 730.364 404.246 733.244 404.212 736.619ZM506.494 783.562C498.449 783.562 491.528 781.858 485.733 778.449C479.972 775.006 475.54 770.233 472.438 764.131C469.369 758.028 467.835 751.006 467.835 743.062C467.835 735.017 469.386 727.96 472.489 721.892C475.625 715.79 480.074 711.034 485.835 707.625C491.597 704.182 498.449 702.46 506.392 702.46C513.244 702.46 519.244 703.704 524.392 706.193C529.54 708.682 533.614 712.176 536.614 716.676C539.614 721.176 541.267 726.46 541.574 732.528H521.017C520.438 728.608 518.903 725.454 516.415 723.068C513.96 720.648 510.739 719.437 506.75 719.437C503.375 719.437 500.426 720.358 497.903 722.199C495.415 724.006 493.472 726.648 492.074 730.125C490.676 733.602 489.977 737.812 489.977 742.756C489.977 747.767 490.659 752.028 492.023 755.54C493.42 759.051 495.381 761.727 497.903 763.568C500.426 765.409 503.375 766.329 506.75 766.329C509.239 766.329 511.472 765.818 513.449 764.795C515.46 763.773 517.114 762.29 518.409 760.347C519.739 758.369 520.608 756 521.017 753.239H541.574C541.233 759.239 539.597 764.523 536.665 769.091C533.767 773.625 529.761 777.17 524.648 779.727C519.534 782.284 513.483 783.562 506.494 783.562ZM554.93 782.028V677.301H577.072V763.773H621.97V782.028H554.93ZM635.224 782.028V703.483H657.009V782.028H635.224ZM646.168 693.358C642.929 693.358 640.151 692.284 637.832 690.136C635.548 687.954 634.406 685.346 634.406 682.312C634.406 679.312 635.548 676.739 637.832 674.591C640.151 672.409 642.929 671.318 646.168 671.318C649.406 671.318 652.168 672.409 654.452 674.591C656.77 676.739 657.929 679.312 657.929 682.312C657.929 685.346 656.77 687.954 654.452 690.136C652.168 692.284 649.406 693.358 646.168 693.358ZM715.697 703.483V719.847H667.22V703.483H715.697ZM678.317 782.028V697.807C678.317 692.114 679.425 687.392 681.641 683.642C683.891 679.892 686.959 677.079 690.845 675.204C694.732 673.329 699.146 672.392 704.089 672.392C707.43 672.392 710.482 672.648 713.243 673.159C716.038 673.67 718.118 674.131 719.482 674.54L715.595 690.903C714.743 690.631 713.686 690.375 712.425 690.136C711.197 689.898 709.936 689.778 708.641 689.778C705.436 689.778 703.203 690.528 701.942 692.028C700.68 693.494 700.05 695.557 700.05 698.216V782.028H678.317ZM760.989 783.562C752.909 783.562 745.955 781.926 740.125 778.653C734.33 775.347 729.864 770.676 726.727 764.642C723.591 758.574 722.023 751.398 722.023 743.114C722.023 735.034 723.591 727.943 726.727 721.841C729.864 715.739 734.278 710.983 739.972 707.574C745.699 704.165 752.415 702.46 760.119 702.46C765.301 702.46 770.125 703.295 774.591 704.966C779.091 706.602 783.011 709.074 786.352 712.381C789.727 715.687 792.352 719.847 794.227 724.858C796.102 729.835 797.04 735.665 797.04 742.347V748.329H730.716V734.829H776.534C776.534 731.693 775.852 728.915 774.489 726.494C773.125 724.074 771.233 722.182 768.812 720.818C766.426 719.42 763.648 718.722 760.477 718.722C757.17 718.722 754.239 719.489 751.682 721.023C749.159 722.523 747.182 724.551 745.75 727.108C744.318 729.631 743.585 732.443 743.551 735.545V748.381C743.551 752.267 744.267 755.625 745.699 758.454C747.165 761.284 749.227 763.466 751.886 765C754.545 766.534 757.699 767.301 761.347 767.301C763.767 767.301 765.983 766.96 767.994 766.278C770.006 765.597 771.727 764.574 773.159 763.21C774.591 761.847 775.682 760.176 776.432 758.199L796.58 759.528C795.557 764.369 793.46 768.597 790.29 772.21C787.153 775.79 783.097 778.585 778.119 780.597C773.176 782.574 767.466 783.562 760.989 783.562Z" fill="#2B3A8C"/>
<path d="M107.547 845.825C107.401 844.461 106.786 843.398 105.703 842.638C104.63 841.877 103.234 841.497 101.516 841.497C100.307 841.497 99.2708 841.679 98.4063 842.044C97.5417 842.409 96.8802 842.903 96.4219 843.528C95.9635 844.153 95.7292 844.867 95.7188 845.669C95.7188 846.336 95.8698 846.914 96.1719 847.403C96.4844 847.893 96.9063 848.31 97.4375 848.653C97.9688 848.987 98.5573 849.268 99.2031 849.497C99.849 849.726 100.5 849.919 101.156 850.075L104.156 850.825C105.365 851.106 106.526 851.487 107.641 851.966C108.766 852.445 109.771 853.049 110.656 853.778C111.552 854.507 112.26 855.388 112.781 856.419C113.302 857.45 113.563 858.659 113.563 860.044C113.563 861.919 113.083 863.57 112.125 864.997C111.167 866.414 109.781 867.523 107.969 868.325C106.167 869.117 103.984 869.513 101.422 869.513C98.9323 869.513 96.7708 869.127 94.9375 868.356C93.1146 867.586 91.6875 866.461 90.6563 864.981C89.6354 863.502 89.0833 861.7 89 859.575H94.7031C94.7865 860.69 95.1302 861.617 95.7344 862.356C96.3385 863.096 97.125 863.648 98.0938 864.013C99.0729 864.377 100.167 864.56 101.375 864.56C102.635 864.56 103.74 864.372 104.688 863.997C105.646 863.612 106.396 863.08 106.938 862.403C107.479 861.716 107.755 860.914 107.766 859.997C107.755 859.164 107.51 858.476 107.031 857.935C106.552 857.382 105.88 856.924 105.016 856.56C104.161 856.185 103.161 855.851 102.016 855.56L98.375 854.622C95.7396 853.945 93.6563 852.919 92.125 851.544C90.6042 850.159 89.8438 848.32 89.8438 846.028C89.8438 844.143 90.3542 842.492 91.375 841.075C92.4063 839.659 93.8073 838.56 95.5781 837.778C97.349 836.987 99.3542 836.591 101.594 836.591C103.865 836.591 105.854 836.987 107.563 837.778C109.281 838.56 110.63 839.648 111.609 841.044C112.589 842.429 113.094 844.023 113.125 845.825H107.547ZM117.48 869.028V845.028H122.887V849.106H123.168C123.668 847.731 124.496 846.659 125.652 845.888C126.809 845.106 128.189 844.716 129.793 844.716C131.418 844.716 132.788 845.112 133.902 845.903C135.027 846.685 135.819 847.752 136.277 849.106H136.527C137.059 847.773 137.954 846.711 139.215 845.919C140.486 845.117 141.991 844.716 143.73 844.716C145.939 844.716 147.741 845.414 149.137 846.81C150.533 848.205 151.23 850.242 151.23 852.919V869.028H145.559V853.794C145.559 852.304 145.163 851.216 144.371 850.528C143.579 849.83 142.611 849.481 141.465 849.481C140.1 849.481 139.033 849.909 138.262 850.763C137.501 851.606 137.121 852.705 137.121 854.06V869.028H131.574V853.56C131.574 852.32 131.199 851.33 130.449 850.591C129.71 849.851 128.741 849.481 127.543 849.481C126.73 849.481 125.991 849.69 125.324 850.106C124.658 850.513 124.126 851.091 123.73 851.841C123.335 852.58 123.137 853.445 123.137 854.435V869.028H117.48ZM162.875 869.513C161.354 869.513 159.984 869.242 158.766 868.7C157.557 868.148 156.599 867.336 155.891 866.263C155.193 865.19 154.844 863.867 154.844 862.294C154.844 860.94 155.094 859.82 155.594 858.935C156.094 858.049 156.776 857.341 157.641 856.81C158.505 856.278 159.479 855.877 160.563 855.606C161.656 855.325 162.786 855.122 163.953 854.997C165.359 854.851 166.5 854.721 167.375 854.606C168.25 854.481 168.885 854.294 169.281 854.044C169.688 853.784 169.891 853.382 169.891 852.841V852.747C169.891 851.57 169.542 850.659 168.844 850.013C168.146 849.367 167.141 849.044 165.828 849.044C164.443 849.044 163.344 849.346 162.531 849.95C161.729 850.554 161.188 851.268 160.906 852.091L155.625 851.341C156.042 849.882 156.729 848.664 157.688 847.685C158.646 846.695 159.818 845.955 161.203 845.466C162.589 844.966 164.12 844.716 165.797 844.716C166.953 844.716 168.104 844.851 169.25 845.122C170.396 845.393 171.443 845.841 172.391 846.466C173.339 847.08 174.099 847.919 174.672 848.981C175.255 850.044 175.547 851.372 175.547 852.966V869.028H170.109V865.731H169.922C169.578 866.398 169.094 867.023 168.469 867.606C167.854 868.179 167.078 868.643 166.141 868.997C165.214 869.341 164.125 869.513 162.875 869.513ZM164.344 865.356C165.479 865.356 166.464 865.132 167.297 864.685C168.13 864.226 168.771 863.622 169.219 862.872C169.677 862.122 169.906 861.304 169.906 860.419V857.591C169.729 857.737 169.427 857.872 169 857.997C168.583 858.122 168.115 858.231 167.594 858.325C167.073 858.419 166.557 858.502 166.047 858.575C165.536 858.648 165.094 858.711 164.719 858.763C163.875 858.877 163.12 859.065 162.453 859.325C161.786 859.586 161.26 859.95 160.875 860.419C160.49 860.877 160.297 861.471 160.297 862.2C160.297 863.242 160.677 864.028 161.438 864.56C162.198 865.091 163.167 865.356 164.344 865.356ZM180.234 869.028V845.028H185.719V849.028H185.969C186.406 847.643 187.156 846.575 188.219 845.825C189.292 845.065 190.516 844.685 191.891 844.685C192.203 844.685 192.552 844.7 192.938 844.731C193.333 844.752 193.661 844.789 193.922 844.841V850.044C193.682 849.961 193.302 849.888 192.781 849.825C192.271 849.752 191.776 849.716 191.297 849.716C190.266 849.716 189.339 849.94 188.516 850.388C187.703 850.825 187.063 851.435 186.594 852.216C186.125 852.997 185.891 853.898 185.891 854.919V869.028H180.234ZM209.953 845.028V849.403H196.156V845.028H209.953ZM199.563 839.278H205.219V861.81C205.219 862.57 205.333 863.153 205.563 863.56C205.802 863.955 206.115 864.226 206.5 864.372C206.885 864.518 207.313 864.591 207.781 864.591C208.135 864.591 208.458 864.565 208.75 864.513C209.052 864.461 209.281 864.414 209.438 864.372L210.391 868.794C210.089 868.898 209.656 869.013 209.094 869.138C208.542 869.263 207.865 869.336 207.063 869.356C205.646 869.398 204.37 869.185 203.234 868.716C202.099 868.237 201.198 867.497 200.531 866.497C199.875 865.497 199.552 864.247 199.563 862.747V839.278ZM223.848 869.028V837.028H229.645V850.575H244.473V837.028H250.285V869.028H244.473V855.435H229.645V869.028H223.848ZM262.246 869.513C260.725 869.513 259.355 869.242 258.137 868.7C256.928 868.148 255.97 867.336 255.262 866.263C254.564 865.19 254.215 863.867 254.215 862.294C254.215 860.94 254.465 859.82 254.965 858.935C255.465 858.049 256.147 857.341 257.012 856.81C257.876 856.278 258.85 855.877 259.934 855.606C261.027 855.325 262.158 855.122 263.324 854.997C264.73 854.851 265.871 854.721 266.746 854.606C267.621 854.481 268.257 854.294 268.652 854.044C269.059 853.784 269.262 853.382 269.262 852.841V852.747C269.262 851.57 268.913 850.659 268.215 850.013C267.517 849.367 266.512 849.044 265.199 849.044C263.814 849.044 262.715 849.346 261.902 849.95C261.1 850.554 260.559 851.268 260.277 852.091L254.996 851.341C255.413 849.882 256.1 848.664 257.059 847.685C258.017 846.695 259.189 845.955 260.574 845.466C261.96 844.966 263.491 844.716 265.168 844.716C266.324 844.716 267.475 844.851 268.621 845.122C269.767 845.393 270.814 845.841 271.762 846.466C272.71 847.08 273.47 847.919 274.043 848.981C274.626 850.044 274.918 851.372 274.918 852.966V869.028H269.48V865.731H269.293C268.949 866.398 268.465 867.023 267.84 867.606C267.225 868.179 266.449 868.643 265.512 868.997C264.585 869.341 263.496 869.513 262.246 869.513ZM263.715 865.356C264.85 865.356 265.835 865.132 266.668 864.685C267.501 864.226 268.142 863.622 268.59 862.872C269.048 862.122 269.277 861.304 269.277 860.419V857.591C269.1 857.737 268.798 857.872 268.371 857.997C267.954 858.122 267.486 858.231 266.965 858.325C266.444 858.419 265.928 858.502 265.418 858.575C264.908 858.648 264.465 858.711 264.09 858.763C263.246 858.877 262.491 859.065 261.824 859.325C261.158 859.586 260.632 859.95 260.246 860.419C259.861 860.877 259.668 861.471 259.668 862.2C259.668 863.242 260.048 864.028 260.809 864.56C261.569 865.091 262.538 865.356 263.715 865.356ZM279.855 869.028V837.028H285.512V848.997H285.746C286.038 848.414 286.449 847.794 286.98 847.138C287.512 846.471 288.23 845.903 289.137 845.435C290.043 844.955 291.199 844.716 292.605 844.716C294.46 844.716 296.132 845.19 297.621 846.138C299.121 847.075 300.309 848.466 301.184 850.31C302.069 852.143 302.512 854.393 302.512 857.06C302.512 859.695 302.079 861.935 301.215 863.778C300.35 865.622 299.173 867.028 297.684 867.997C296.194 868.966 294.507 869.45 292.621 869.45C291.246 869.45 290.105 869.221 289.199 868.763C288.293 868.304 287.564 867.752 287.012 867.106C286.47 866.45 286.048 865.83 285.746 865.247H285.418V869.028H279.855ZM285.402 857.028C285.402 858.58 285.621 859.94 286.059 861.106C286.507 862.273 287.147 863.185 287.98 863.841C288.824 864.487 289.845 864.81 291.043 864.81C292.293 864.81 293.34 864.476 294.184 863.81C295.027 863.132 295.663 862.211 296.09 861.044C296.527 859.867 296.746 858.528 296.746 857.028C296.746 855.539 296.533 854.216 296.105 853.06C295.678 851.903 295.043 850.997 294.199 850.341C293.355 849.685 292.303 849.356 291.043 849.356C289.835 849.356 288.809 849.674 287.965 850.31C287.121 850.945 286.48 851.836 286.043 852.981C285.616 854.127 285.402 855.476 285.402 857.028ZM306.32 869.028V845.028H311.977V869.028H306.32ZM309.164 841.622C308.268 841.622 307.497 841.325 306.852 840.731C306.206 840.127 305.883 839.403 305.883 838.56C305.883 837.705 306.206 836.981 306.852 836.388C307.497 835.784 308.268 835.481 309.164 835.481C310.07 835.481 310.841 835.784 311.477 836.388C312.122 836.981 312.445 837.705 312.445 838.56C312.445 839.403 312.122 840.127 311.477 840.731C310.841 841.325 310.07 841.622 309.164 841.622ZM328.777 845.028V849.403H314.98V845.028H328.777ZM318.387 839.278H324.043V861.81C324.043 862.57 324.158 863.153 324.387 863.56C324.626 863.955 324.939 864.226 325.324 864.372C325.71 864.518 326.137 864.591 326.605 864.591C326.96 864.591 327.283 864.565 327.574 864.513C327.876 864.461 328.105 864.414 328.262 864.372L329.215 868.794C328.913 868.898 328.48 869.013 327.918 869.138C327.366 869.263 326.689 869.336 325.887 869.356C324.47 869.398 323.194 869.185 322.059 868.716C320.923 868.237 320.022 867.497 319.355 866.497C318.699 865.497 318.376 864.247 318.387 862.747V839.278ZM341.266 841.888V837.028H366.797V841.888H356.906V869.028H351.156V841.888H341.266ZM367.977 869.028V845.028H373.461V849.028H373.711C374.148 847.643 374.898 846.575 375.961 845.825C377.034 845.065 378.258 844.685 379.633 844.685C379.945 844.685 380.294 844.7 380.68 844.731C381.076 844.752 381.404 844.789 381.664 844.841V850.044C381.424 849.961 381.044 849.888 380.523 849.825C380.013 849.752 379.518 849.716 379.039 849.716C378.008 849.716 377.081 849.94 376.258 850.388C375.445 850.825 374.805 851.435 374.336 852.216C373.867 852.997 373.633 853.898 373.633 854.919V869.028H367.977ZM390.898 869.513C389.378 869.513 388.008 869.242 386.789 868.7C385.581 868.148 384.622 867.336 383.914 866.263C383.216 865.19 382.867 863.867 382.867 862.294C382.867 860.94 383.117 859.82 383.617 858.935C384.117 858.049 384.799 857.341 385.664 856.81C386.529 856.278 387.503 855.877 388.586 855.606C389.68 855.325 390.81 855.122 391.977 854.997C393.383 854.851 394.523 854.721 395.398 854.606C396.273 854.481 396.909 854.294 397.305 854.044C397.711 853.784 397.914 853.382 397.914 852.841V852.747C397.914 851.57 397.565 850.659 396.867 850.013C396.169 849.367 395.164 849.044 393.852 849.044C392.466 849.044 391.367 849.346 390.555 849.95C389.753 850.554 389.211 851.268 388.93 852.091L383.648 851.341C384.065 849.882 384.753 848.664 385.711 847.685C386.669 846.695 387.841 845.955 389.227 845.466C390.612 844.966 392.143 844.716 393.82 844.716C394.977 844.716 396.128 844.851 397.273 845.122C398.419 845.393 399.466 845.841 400.414 846.466C401.362 847.08 402.122 847.919 402.695 848.981C403.279 850.044 403.57 851.372 403.57 852.966V869.028H398.133V865.731H397.945C397.602 866.398 397.117 867.023 396.492 867.606C395.878 868.179 395.102 868.643 394.164 868.997C393.237 869.341 392.148 869.513 390.898 869.513ZM392.367 865.356C393.503 865.356 394.487 865.132 395.32 864.685C396.154 864.226 396.794 863.622 397.242 862.872C397.701 862.122 397.93 861.304 397.93 860.419V857.591C397.753 857.737 397.451 857.872 397.023 857.997C396.607 858.122 396.138 858.231 395.617 858.325C395.096 858.419 394.581 858.502 394.07 858.575C393.56 858.648 393.117 858.711 392.742 858.763C391.898 858.877 391.143 859.065 390.477 859.325C389.81 859.586 389.284 859.95 388.898 860.419C388.513 860.877 388.32 861.471 388.32 862.2C388.32 863.242 388.701 864.028 389.461 864.56C390.221 865.091 391.19 865.356 392.367 865.356ZM418.727 869.497C416.331 869.497 414.273 868.971 412.555 867.919C410.846 866.867 409.529 865.414 408.602 863.56C407.685 861.695 407.227 859.549 407.227 857.122C407.227 854.685 407.695 852.534 408.633 850.669C409.57 848.794 410.893 847.336 412.602 846.294C414.32 845.242 416.352 844.716 418.695 844.716C420.643 844.716 422.367 845.075 423.867 845.794C425.378 846.502 426.581 847.507 427.477 848.81C428.372 850.101 428.883 851.612 429.008 853.341H423.602C423.383 852.185 422.862 851.221 422.039 850.45C421.227 849.669 420.138 849.278 418.773 849.278C417.617 849.278 416.602 849.591 415.727 850.216C414.852 850.83 414.169 851.716 413.68 852.872C413.201 854.028 412.961 855.414 412.961 857.028C412.961 858.664 413.201 860.07 413.68 861.247C414.159 862.414 414.831 863.315 415.695 863.95C416.57 864.575 417.596 864.888 418.773 864.888C419.607 864.888 420.352 864.731 421.008 864.419C421.674 864.096 422.232 863.632 422.68 863.028C423.128 862.424 423.435 861.69 423.602 860.825H429.008C428.872 862.523 428.372 864.028 427.508 865.341C426.643 866.643 425.466 867.664 423.977 868.403C422.487 869.132 420.737 869.497 418.727 869.497ZM437.809 861.497L437.793 854.669H438.699L447.324 845.028H453.934L443.324 856.841H442.152L437.809 861.497ZM432.652 869.028V837.028H438.309V869.028H432.652ZM447.715 869.028L439.902 858.106L443.715 854.122L454.48 869.028H447.715ZM466.34 869.497C463.934 869.497 461.855 868.997 460.105 867.997C458.366 866.987 457.027 865.56 456.09 863.716C455.152 861.862 454.684 859.679 454.684 857.169C454.684 854.7 455.152 852.534 456.09 850.669C457.038 848.794 458.361 847.336 460.059 846.294C461.757 845.242 463.751 844.716 466.043 844.716C467.522 844.716 468.918 844.955 470.23 845.435C471.553 845.903 472.72 846.632 473.73 847.622C474.751 848.612 475.553 849.872 476.137 851.403C476.72 852.924 477.012 854.737 477.012 856.841V858.575H457.34V854.763H471.59C471.579 853.679 471.345 852.716 470.887 851.872C470.428 851.018 469.788 850.346 468.965 849.856C468.152 849.367 467.204 849.122 466.121 849.122C464.965 849.122 463.949 849.403 463.074 849.966C462.199 850.518 461.517 851.247 461.027 852.153C460.548 853.049 460.303 854.034 460.293 855.106V858.435C460.293 859.83 460.548 861.028 461.059 862.028C461.569 863.018 462.283 863.778 463.199 864.31C464.116 864.83 465.189 865.091 466.418 865.091C467.241 865.091 467.986 864.976 468.652 864.747C469.319 864.507 469.897 864.159 470.387 863.7C470.876 863.242 471.246 862.674 471.496 861.997L476.777 862.591C476.444 863.987 475.809 865.205 474.871 866.247C473.944 867.278 472.757 868.08 471.309 868.653C469.861 869.216 468.204 869.497 466.34 869.497ZM480.797 869.028V845.028H486.281V849.028H486.531C486.969 847.643 487.719 846.575 488.781 845.825C489.854 845.065 491.078 844.685 492.453 844.685C492.766 844.685 493.115 844.7 493.5 844.731C493.896 844.752 494.224 844.789 494.484 844.841V850.044C494.245 849.961 493.865 849.888 493.344 849.825C492.833 849.752 492.339 849.716 491.859 849.716C490.828 849.716 489.901 849.94 489.078 850.388C488.266 850.825 487.625 851.435 487.156 852.216C486.688 852.997 486.453 853.898 486.453 854.919V869.028H480.797ZM516.719 869.497C514.531 869.497 512.651 869.101 511.078 868.31C509.505 867.518 508.292 866.45 507.438 865.106C506.594 863.752 506.172 862.226 506.172 860.528C506.172 859.247 506.432 858.112 506.953 857.122C507.484 856.132 508.214 855.216 509.141 854.372C510.078 853.528 511.161 852.69 512.391 851.856L518.063 847.997C518.896 847.455 519.526 846.882 519.953 846.278C520.391 845.674 520.609 844.966 520.609 844.153C520.609 843.466 520.318 842.815 519.734 842.2C519.161 841.586 518.37 841.278 517.359 841.278C516.682 841.278 516.083 841.44 515.563 841.763C515.052 842.075 514.651 842.487 514.359 842.997C514.078 843.507 513.938 844.049 513.938 844.622C513.938 845.32 514.13 846.028 514.516 846.747C514.911 847.466 515.422 848.211 516.047 848.981C516.682 849.752 517.359 850.57 518.078 851.435L533.094 869.028H526.969L514.5 854.747C513.573 853.664 512.677 852.596 511.812 851.544C510.958 850.492 510.255 849.398 509.703 848.263C509.161 847.117 508.891 845.877 508.891 844.544C508.891 843.034 509.24 841.685 509.938 840.497C510.635 839.299 511.609 838.356 512.859 837.669C514.12 836.981 515.594 836.638 517.281 836.638C518.969 836.638 520.417 836.971 521.625 837.638C522.833 838.304 523.766 839.19 524.422 840.294C525.078 841.398 525.406 842.601 525.406 843.903C525.406 845.414 525.031 846.768 524.281 847.966C523.531 849.153 522.49 850.231 521.156 851.2L514.688 855.935C513.625 856.705 512.865 857.487 512.406 858.278C511.948 859.06 511.719 859.726 511.719 860.278C511.719 861.122 511.932 861.888 512.359 862.575C512.786 863.263 513.385 863.815 514.156 864.231C514.937 864.638 515.849 864.841 516.891 864.841C518.036 864.841 519.167 864.586 520.281 864.075C521.396 863.554 522.411 862.815 523.328 861.856C524.245 860.898 524.974 859.752 525.516 858.419C526.057 857.075 526.328 855.586 526.328 853.95H531.188C531.188 855.971 530.964 857.731 530.516 859.231C530.068 860.721 529.49 861.981 528.781 863.013C528.073 864.034 527.323 864.851 526.531 865.466C526.281 865.643 526.042 865.82 525.813 865.997C525.583 866.174 525.344 866.351 525.094 866.528C523.969 867.549 522.651 868.299 521.141 868.778C519.641 869.257 518.167 869.497 516.719 869.497ZM562.887 845.825C562.741 844.461 562.126 843.398 561.043 842.638C559.97 841.877 558.574 841.497 556.855 841.497C555.647 841.497 554.611 841.679 553.746 842.044C552.882 842.409 552.22 842.903 551.762 843.528C551.303 844.153 551.069 844.867 551.059 845.669C551.059 846.336 551.21 846.914 551.512 847.403C551.824 847.893 552.246 848.31 552.777 848.653C553.309 848.987 553.897 849.268 554.543 849.497C555.189 849.726 555.84 849.919 556.496 850.075L559.496 850.825C560.704 851.106 561.866 851.487 562.98 851.966C564.105 852.445 565.111 853.049 565.996 853.778C566.892 854.507 567.6 855.388 568.121 856.419C568.642 857.45 568.902 858.659 568.902 860.044C568.902 861.919 568.423 863.57 567.465 864.997C566.507 866.414 565.121 867.523 563.309 868.325C561.507 869.117 559.324 869.513 556.762 869.513C554.272 869.513 552.111 869.127 550.277 868.356C548.454 867.586 547.027 866.461 545.996 864.981C544.975 863.502 544.423 861.7 544.34 859.575H550.043C550.126 860.69 550.47 861.617 551.074 862.356C551.678 863.096 552.465 863.648 553.434 864.013C554.413 864.377 555.507 864.56 556.715 864.56C557.975 864.56 559.079 864.372 560.027 863.997C560.986 863.612 561.736 863.08 562.277 862.403C562.819 861.716 563.095 860.914 563.105 859.997C563.095 859.164 562.85 858.476 562.371 857.935C561.892 857.382 561.22 856.924 560.355 856.56C559.501 856.185 558.501 855.851 557.355 855.56L553.715 854.622C551.079 853.945 548.996 852.919 547.465 851.544C545.944 850.159 545.184 848.32 545.184 846.028C545.184 844.143 545.694 842.492 546.715 841.075C547.746 839.659 549.147 838.56 550.918 837.778C552.689 836.987 554.694 836.591 556.934 836.591C559.204 836.591 561.194 836.987 562.902 837.778C564.621 838.56 565.97 839.648 566.949 841.044C567.928 842.429 568.434 844.023 568.465 845.825H562.887ZM588.117 858.935V845.028H593.773V869.028H588.289V864.763H588.039C587.497 866.106 586.607 867.205 585.367 868.06C584.138 868.914 582.622 869.341 580.82 869.341C579.247 869.341 577.857 868.992 576.648 868.294C575.451 867.586 574.513 866.56 573.836 865.216C573.159 863.862 572.82 862.226 572.82 860.31V845.028H578.477V859.435C578.477 860.955 578.893 862.164 579.727 863.06C580.56 863.955 581.654 864.403 583.008 864.403C583.841 864.403 584.648 864.2 585.43 863.794C586.211 863.388 586.852 862.784 587.352 861.981C587.862 861.169 588.117 860.153 588.117 858.935ZM609.059 869.497C606.663 869.497 604.605 868.971 602.887 867.919C601.178 866.867 599.861 865.414 598.934 863.56C598.017 861.695 597.559 859.549 597.559 857.122C597.559 854.685 598.027 852.534 598.965 850.669C599.902 848.794 601.225 847.336 602.934 846.294C604.652 845.242 606.684 844.716 609.027 844.716C610.975 844.716 612.699 845.075 614.199 845.794C615.71 846.502 616.913 847.507 617.809 848.81C618.704 850.101 619.215 851.612 619.34 853.341H613.934C613.715 852.185 613.194 851.221 612.371 850.45C611.559 849.669 610.47 849.278 609.105 849.278C607.949 849.278 606.934 849.591 606.059 850.216C605.184 850.83 604.501 851.716 604.012 852.872C603.533 854.028 603.293 855.414 603.293 857.028C603.293 858.664 603.533 860.07 604.012 861.247C604.491 862.414 605.163 863.315 606.027 863.95C606.902 864.575 607.928 864.888 609.105 864.888C609.939 864.888 610.684 864.731 611.34 864.419C612.007 864.096 612.564 863.632 613.012 863.028C613.46 862.424 613.767 861.69 613.934 860.825H619.34C619.204 862.523 618.704 864.028 617.84 865.341C616.975 866.643 615.798 867.664 614.309 868.403C612.819 869.132 611.069 869.497 609.059 869.497ZM633.453 869.497C631.057 869.497 629 868.971 627.281 867.919C625.573 866.867 624.255 865.414 623.328 863.56C622.411 861.695 621.953 859.549 621.953 857.122C621.953 854.685 622.422 852.534 623.359 850.669C624.297 848.794 625.62 847.336 627.328 846.294C629.047 845.242 631.078 844.716 633.422 844.716C635.37 844.716 637.094 845.075 638.594 845.794C640.104 846.502 641.307 847.507 642.203 848.81C643.099 850.101 643.609 851.612 643.734 853.341H638.328C638.109 852.185 637.589 851.221 636.766 850.45C635.953 849.669 634.865 849.278 633.5 849.278C632.344 849.278 631.328 849.591 630.453 850.216C629.578 850.83 628.896 851.716 628.406 852.872C627.927 854.028 627.688 855.414 627.688 857.028C627.688 858.664 627.927 860.07 628.406 861.247C628.885 862.414 629.557 863.315 630.422 863.95C631.297 864.575 632.323 864.888 633.5 864.888C634.333 864.888 635.078 864.731 635.734 864.419C636.401 864.096 636.958 863.632 637.406 863.028C637.854 862.424 638.161 861.69 638.328 860.825H643.734C643.599 862.523 643.099 864.028 642.234 865.341C641.37 866.643 640.193 867.664 638.703 868.403C637.214 869.132 635.464 869.497 633.453 869.497ZM658.004 869.497C655.598 869.497 653.52 868.997 651.77 867.997C650.03 866.987 648.691 865.56 647.754 863.716C646.816 861.862 646.348 859.679 646.348 857.169C646.348 854.7 646.816 852.534 647.754 850.669C648.702 848.794 650.025 847.336 651.723 846.294C653.421 845.242 655.415 844.716 657.707 844.716C659.186 844.716 660.582 844.955 661.895 845.435C663.217 845.903 664.384 846.632 665.395 847.622C666.415 848.612 667.217 849.872 667.801 851.403C668.384 852.924 668.676 854.737 668.676 856.841V858.575H649.004V854.763H663.254C663.243 853.679 663.009 852.716 662.551 851.872C662.092 851.018 661.452 850.346 660.629 849.856C659.816 849.367 658.868 849.122 657.785 849.122C656.629 849.122 655.613 849.403 654.738 849.966C653.863 850.518 653.181 851.247 652.691 852.153C652.212 853.049 651.967 854.034 651.957 855.106V858.435C651.957 859.83 652.212 861.028 652.723 862.028C653.233 863.018 653.947 863.778 654.863 864.31C655.78 864.83 656.853 865.091 658.082 865.091C658.905 865.091 659.65 864.976 660.316 864.747C660.983 864.507 661.561 864.159 662.051 863.7C662.54 863.242 662.91 862.674 663.16 861.997L668.441 862.591C668.108 863.987 667.473 865.205 666.535 866.247C665.608 867.278 664.421 868.08 662.973 868.653C661.525 869.216 659.868 869.497 658.004 869.497ZM691.43 851.372L686.273 851.935C686.128 851.414 685.872 850.924 685.508 850.466C685.154 850.007 684.674 849.638 684.07 849.356C683.466 849.075 682.727 848.935 681.852 848.935C680.674 848.935 679.685 849.19 678.883 849.7C678.091 850.211 677.701 850.872 677.711 851.685C677.701 852.382 677.956 852.95 678.477 853.388C679.008 853.825 679.883 854.185 681.102 854.466L685.195 855.341C687.466 855.83 689.154 856.606 690.258 857.669C691.372 858.731 691.935 860.122 691.945 861.841C691.935 863.351 691.492 864.685 690.617 865.841C689.753 866.987 688.549 867.882 687.008 868.528C685.466 869.174 683.695 869.497 681.695 869.497C678.758 869.497 676.393 868.882 674.602 867.653C672.81 866.414 671.742 864.69 671.398 862.481L676.914 861.95C677.164 863.034 677.695 863.851 678.508 864.403C679.32 864.955 680.378 865.231 681.68 865.231C683.023 865.231 684.102 864.955 684.914 864.403C685.737 863.851 686.148 863.169 686.148 862.356C686.148 861.669 685.883 861.101 685.352 860.653C684.831 860.205 684.018 859.862 682.914 859.622L678.82 858.763C676.518 858.284 674.815 857.476 673.711 856.341C672.607 855.195 672.06 853.747 672.07 851.997C672.06 850.518 672.461 849.237 673.273 848.153C674.096 847.06 675.237 846.216 676.695 845.622C678.164 845.018 679.857 844.716 681.773 844.716C684.586 844.716 686.799 845.315 688.414 846.513C690.039 847.711 691.044 849.33 691.43 851.372ZM714.578 851.372L709.422 851.935C709.276 851.414 709.021 850.924 708.656 850.466C708.302 850.007 707.823 849.638 707.219 849.356C706.615 849.075 705.875 848.935 705 848.935C703.823 848.935 702.833 849.19 702.031 849.7C701.24 850.211 700.849 850.872 700.859 851.685C700.849 852.382 701.104 852.95 701.625 853.388C702.156 853.825 703.031 854.185 704.25 854.466L708.344 855.341C710.615 855.83 712.302 856.606 713.406 857.669C714.521 858.731 715.083 860.122 715.094 861.841C715.083 863.351 714.641 864.685 713.766 865.841C712.901 866.987 711.698 867.882 710.156 868.528C708.615 869.174 706.844 869.497 704.844 869.497C701.906 869.497 699.542 868.882 697.75 867.653C695.958 866.414 694.891 864.69 694.547 862.481L700.063 861.95C700.313 863.034 700.844 863.851 701.656 864.403C702.469 864.955 703.526 865.231 704.828 865.231C706.172 865.231 707.25 864.955 708.063 864.403C708.885 863.851 709.297 863.169 709.297 862.356C709.297 861.669 709.031 861.101 708.5 860.653C707.979 860.205 707.167 859.862 706.062 859.622L701.969 858.763C699.667 858.284 697.964 857.476 696.859 856.341C695.755 855.195 695.208 853.747 695.219 851.997C695.208 850.518 695.609 849.237 696.422 848.153C697.245 847.06 698.385 846.216 699.844 845.622C701.313 845.018 703.005 844.716 704.922 844.716C707.734 844.716 709.948 845.315 711.563 846.513C713.188 847.711 714.193 849.33 714.578 851.372ZM728.922 869.028V837.028H740.922C743.38 837.028 745.443 837.487 747.109 838.403C748.786 839.32 750.052 840.58 750.906 842.185C751.771 843.778 752.203 845.591 752.203 847.622C752.203 849.674 751.771 851.497 750.906 853.091C750.042 854.685 748.766 855.94 747.078 856.856C745.391 857.763 743.313 858.216 740.844 858.216H732.891V853.45H740.063C741.5 853.45 742.677 853.2 743.594 852.7C744.51 852.2 745.188 851.513 745.625 850.638C746.073 849.763 746.297 848.757 746.297 847.622C746.297 846.487 746.073 845.487 745.625 844.622C745.188 843.757 744.505 843.086 743.578 842.606C742.661 842.117 741.479 841.872 740.031 841.872H734.719V869.028H728.922ZM755.988 869.028V845.028H761.473V849.028H761.723C762.16 847.643 762.91 846.575 763.973 845.825C765.046 845.065 766.27 844.685 767.645 844.685C767.957 844.685 768.306 844.7 768.691 844.731C769.087 844.752 769.415 844.789 769.676 844.841V850.044C769.436 849.961 769.056 849.888 768.535 849.825C768.025 849.752 767.53 849.716 767.051 849.716C766.02 849.716 765.092 849.94 764.27 850.388C763.457 850.825 762.816 851.435 762.348 852.216C761.879 852.997 761.645 853.898 761.645 854.919V869.028H755.988ZM782.07 869.497C779.664 869.497 777.586 868.997 775.836 867.997C774.096 866.987 772.758 865.56 771.82 863.716C770.883 861.862 770.414 859.679 770.414 857.169C770.414 854.7 770.883 852.534 771.82 850.669C772.768 848.794 774.091 847.336 775.789 846.294C777.487 845.242 779.482 844.716 781.773 844.716C783.253 844.716 784.648 844.955 785.961 845.435C787.284 845.903 788.451 846.632 789.461 847.622C790.482 848.612 791.284 849.872 791.867 851.403C792.451 852.924 792.742 854.737 792.742 856.841V858.575H773.07V854.763H787.32C787.31 853.679 787.076 852.716 786.617 851.872C786.159 851.018 785.518 850.346 784.695 849.856C783.883 849.367 782.935 849.122 781.852 849.122C780.695 849.122 779.68 849.403 778.805 849.966C777.93 850.518 777.247 851.247 776.758 852.153C776.279 853.049 776.034 854.034 776.023 855.106V858.435C776.023 859.83 776.279 861.028 776.789 862.028C777.299 863.018 778.013 863.778 778.93 864.31C779.846 864.83 780.919 865.091 782.148 865.091C782.971 865.091 783.716 864.976 784.383 864.747C785.049 864.507 785.628 864.159 786.117 863.7C786.607 863.242 786.977 862.674 787.227 861.997L792.508 862.591C792.174 863.987 791.539 865.205 790.602 866.247C789.674 867.278 788.487 868.08 787.039 868.653C785.591 869.216 783.935 869.497 782.07 869.497ZM805.434 869.45C803.548 869.45 801.861 868.966 800.371 867.997C798.882 867.028 797.704 865.622 796.84 863.778C795.975 861.935 795.543 859.695 795.543 857.06C795.543 854.393 795.98 852.143 796.855 850.31C797.741 848.466 798.934 847.075 800.434 846.138C801.934 845.19 803.605 844.716 805.449 844.716C806.855 844.716 808.012 844.955 808.918 845.435C809.824 845.903 810.543 846.471 811.074 847.138C811.605 847.794 812.017 848.414 812.309 848.997H812.543V837.028H818.215V869.028H812.652V865.247H812.309C812.017 865.83 811.595 866.45 811.043 867.106C810.491 867.752 809.762 868.304 808.855 868.763C807.949 869.221 806.809 869.45 805.434 869.45ZM807.012 864.81C808.21 864.81 809.23 864.487 810.074 863.841C810.918 863.185 811.559 862.273 811.996 861.106C812.434 859.94 812.652 858.58 812.652 857.028C812.652 855.476 812.434 854.127 811.996 852.981C811.569 851.836 810.934 850.945 810.09 850.31C809.257 849.674 808.23 849.356 807.012 849.356C805.751 849.356 804.699 849.685 803.855 850.341C803.012 850.997 802.376 851.903 801.949 853.06C801.522 854.216 801.309 855.539 801.309 857.028C801.309 858.528 801.522 859.867 801.949 861.044C802.387 862.211 803.027 863.132 803.871 863.81C804.725 864.476 805.772 864.81 807.012 864.81ZM823.242 869.028V845.028H828.898V869.028H823.242ZM826.086 841.622C825.19 841.622 824.419 841.325 823.773 840.731C823.128 840.127 822.805 839.403 822.805 838.56C822.805 837.705 823.128 836.981 823.773 836.388C824.419 835.784 825.19 835.481 826.086 835.481C826.992 835.481 827.763 835.784 828.398 836.388C829.044 836.981 829.367 837.705 829.367 838.56C829.367 839.403 829.044 840.127 828.398 840.731C827.763 841.325 826.992 841.622 826.086 841.622ZM844.184 869.497C841.788 869.497 839.73 868.971 838.012 867.919C836.303 866.867 834.986 865.414 834.059 863.56C833.142 861.695 832.684 859.549 832.684 857.122C832.684 854.685 833.152 852.534 834.09 850.669C835.027 848.794 836.35 847.336 838.059 846.294C839.777 845.242 841.809 844.716 844.152 844.716C846.1 844.716 847.824 845.075 849.324 845.794C850.835 846.502 852.038 847.507 852.934 848.81C853.829 850.101 854.34 851.612 854.465 853.341H849.059C848.84 852.185 848.319 851.221 847.496 850.45C846.684 849.669 845.595 849.278 844.23 849.278C843.074 849.278 842.059 849.591 841.184 850.216C840.309 850.83 839.626 851.716 839.137 852.872C838.658 854.028 838.418 855.414 838.418 857.028C838.418 858.664 838.658 860.07 839.137 861.247C839.616 862.414 840.288 863.315 841.152 863.95C842.027 864.575 843.053 864.888 844.23 864.888C845.064 864.888 845.809 864.731 846.465 864.419C847.132 864.096 847.689 863.632 848.137 863.028C848.585 862.424 848.892 861.69 849.059 860.825H854.465C854.329 862.523 853.829 864.028 852.965 865.341C852.1 866.643 850.923 867.664 849.434 868.403C847.944 869.132 846.194 869.497 844.184 869.497ZM870.094 845.028V849.403H856.297V845.028H870.094ZM859.703 839.278H865.359V861.81C865.359 862.57 865.474 863.153 865.703 863.56C865.943 863.955 866.255 864.226 866.641 864.372C867.026 864.518 867.453 864.591 867.922 864.591C868.276 864.591 868.599 864.565 868.891 864.513C869.193 864.461 869.422 864.414 869.578 864.372L870.531 868.794C870.229 868.898 869.797 869.013 869.234 869.138C868.682 869.263 868.005 869.336 867.203 869.356C865.786 869.398 864.51 869.185 863.375 868.716C862.24 868.237 861.339 867.497 860.672 866.497C860.016 865.497 859.693 864.247 859.703 862.747V839.278ZM884.035 869.497C881.691 869.497 879.66 868.981 877.941 867.95C876.223 866.919 874.889 865.476 873.941 863.622C873.004 861.768 872.535 859.601 872.535 857.122C872.535 854.643 873.004 852.471 873.941 850.606C874.889 848.742 876.223 847.294 877.941 846.263C879.66 845.231 881.691 844.716 884.035 844.716C886.379 844.716 888.41 845.231 890.129 846.263C891.848 847.294 893.176 848.742 894.113 850.606C895.061 852.471 895.535 854.643 895.535 857.122C895.535 859.601 895.061 861.768 894.113 863.622C893.176 865.476 891.848 866.919 890.129 867.95C888.41 868.981 886.379 869.497 884.035 869.497ZM884.066 864.966C885.337 864.966 886.4 864.617 887.254 863.919C888.108 863.211 888.743 862.263 889.16 861.075C889.587 859.888 889.801 858.565 889.801 857.106C889.801 855.638 889.587 854.31 889.16 853.122C888.743 851.924 888.108 850.971 887.254 850.263C886.4 849.554 885.337 849.2 884.066 849.2C882.764 849.2 881.681 849.554 880.816 850.263C879.962 850.971 879.322 851.924 878.895 853.122C878.478 854.31 878.27 855.638 878.27 857.106C878.27 858.565 878.478 859.888 878.895 861.075C879.322 862.263 879.962 863.211 880.816 863.919C881.681 864.617 882.764 864.966 884.066 864.966ZM899.336 869.028V845.028H904.82V849.028H905.07C905.508 847.643 906.258 846.575 907.32 845.825C908.393 845.065 909.617 844.685 910.992 844.685C911.305 844.685 911.654 844.7 912.039 844.731C912.435 844.752 912.763 844.789 913.023 844.841V850.044C912.784 849.961 912.404 849.888 911.883 849.825C911.372 849.752 910.878 849.716 910.398 849.716C909.367 849.716 908.44 849.94 907.617 850.388C906.805 850.825 906.164 851.435 905.695 852.216C905.227 852.997 904.992 853.898 904.992 854.919V869.028H899.336Z" fill="#2B3A8C"/>
</svg>

